<mxfile host="app.diagrams.net" modified="2024-05-14T02:20:19.156Z" agent="Mozilla/5.0 (Windows NT 10.0; Win64; x64) AppleWebKit/537.36 (KHTML, like Gecko) Chrome/124.0.0.0 Safari/537.36" etag="ngYoPrFz_GlOX3czzbTc" version="24.4.0" type="github">
  <diagram name="第 1 页" id="W4y2jrf44JJr1mIpAL2t">
    <mxGraphModel dx="1050" dy="541" grid="1" gridSize="10" guides="1" tooltips="1" connect="1" arrows="1" fold="1" page="1" pageScale="1" pageWidth="827" pageHeight="1169" math="0" shadow="0">
      <root>
        <mxCell id="0" />
        <mxCell id="1" parent="0" />
        <mxCell id="WHLZQFHV3bn9_gJ3Vfd_-7" value="" style="edgeStyle=orthogonalEdgeStyle;rounded=0;orthogonalLoop=1;jettySize=auto;html=1;strokeColor=default;" edge="1" parent="1" source="WHLZQFHV3bn9_gJ3Vfd_-1" target="WHLZQFHV3bn9_gJ3Vfd_-6">
          <mxGeometry relative="1" as="geometry" />
        </mxCell>
        <mxCell id="WHLZQFHV3bn9_gJ3Vfd_-1" value="&lt;b&gt;&lt;font color=&quot;#330000&quot; style=&quot;font-size: 14px;&quot; face=&quot;Times New Roman&quot;&gt;BPMS&lt;/font&gt;&lt;/b&gt;" style="fontColor=#0066CC;verticalAlign=top;verticalLabelPosition=bottom;labelPosition=center;align=center;html=1;outlineConnect=0;fillColor=#CCCCCC;strokeColor=default;gradientColor=none;gradientDirection=north;strokeWidth=2;shape=mxgraph.networks.desktop_pc;" vertex="1" parent="1">
          <mxGeometry x="200" y="180" width="30" height="60" as="geometry" />
        </mxCell>
        <mxCell id="WHLZQFHV3bn9_gJ3Vfd_-12" style="edgeStyle=orthogonalEdgeStyle;rounded=0;orthogonalLoop=1;jettySize=auto;html=1;exitX=1;exitY=0.5;exitDx=0;exitDy=0;exitPerimeter=0;entryX=0;entryY=0.5;entryDx=0;entryDy=0;strokeColor=default;" edge="1" parent="1" source="WHLZQFHV3bn9_gJ3Vfd_-2" target="WHLZQFHV3bn9_gJ3Vfd_-10">
          <mxGeometry relative="1" as="geometry" />
        </mxCell>
        <mxCell id="WHLZQFHV3bn9_gJ3Vfd_-2" value="&lt;b&gt;&lt;font color=&quot;#330000&quot; style=&quot;font-size: 14px;&quot; face=&quot;Times New Roman&quot;&gt;BPMS&lt;/font&gt;&lt;/b&gt;" style="fontColor=#0066CC;verticalAlign=top;verticalLabelPosition=bottom;labelPosition=center;align=center;html=1;outlineConnect=0;fillColor=#CCCCCC;strokeColor=default;gradientColor=none;gradientDirection=north;strokeWidth=2;shape=mxgraph.networks.desktop_pc;" vertex="1" parent="1">
          <mxGeometry x="140" y="290" width="30" height="60" as="geometry" />
        </mxCell>
        <mxCell id="WHLZQFHV3bn9_gJ3Vfd_-13" style="edgeStyle=orthogonalEdgeStyle;rounded=0;orthogonalLoop=1;jettySize=auto;html=1;exitX=0;exitY=0.5;exitDx=0;exitDy=0;exitPerimeter=0;entryX=1;entryY=0.5;entryDx=0;entryDy=0;strokeColor=default;" edge="1" parent="1" source="WHLZQFHV3bn9_gJ3Vfd_-3" target="WHLZQFHV3bn9_gJ3Vfd_-11">
          <mxGeometry relative="1" as="geometry" />
        </mxCell>
        <mxCell id="WHLZQFHV3bn9_gJ3Vfd_-3" value="&lt;b&gt;&lt;font color=&quot;#330000&quot; style=&quot;font-size: 14px;&quot; face=&quot;Times New Roman&quot;&gt;BPMS&lt;/font&gt;&lt;/b&gt;" style="fontColor=#0066CC;verticalAlign=top;verticalLabelPosition=bottom;labelPosition=center;align=center;html=1;outlineConnect=0;fillColor=#CCCCCC;strokeColor=default;gradientColor=none;gradientDirection=north;strokeWidth=2;shape=mxgraph.networks.desktop_pc;" vertex="1" parent="1">
          <mxGeometry x="414" y="290" width="30" height="60" as="geometry" />
        </mxCell>
        <mxCell id="WHLZQFHV3bn9_gJ3Vfd_-9" style="edgeStyle=orthogonalEdgeStyle;rounded=0;orthogonalLoop=1;jettySize=auto;html=1;exitX=0;exitY=0.5;exitDx=0;exitDy=0;exitPerimeter=0;entryX=0.5;entryY=0;entryDx=0;entryDy=0;strokeColor=default;" edge="1" parent="1" source="WHLZQFHV3bn9_gJ3Vfd_-4" target="WHLZQFHV3bn9_gJ3Vfd_-8">
          <mxGeometry relative="1" as="geometry" />
        </mxCell>
        <mxCell id="WHLZQFHV3bn9_gJ3Vfd_-4" value="&lt;b&gt;&lt;font color=&quot;#330000&quot; style=&quot;font-size: 14px;&quot; face=&quot;Times New Roman&quot;&gt;BPMS&lt;/font&gt;&lt;/b&gt;" style="fontColor=#0066CC;verticalAlign=top;verticalLabelPosition=bottom;labelPosition=center;align=center;html=1;outlineConnect=0;fillColor=#CCCCCC;strokeColor=default;gradientColor=none;gradientDirection=north;strokeWidth=2;shape=mxgraph.networks.desktop_pc;" vertex="1" parent="1">
          <mxGeometry x="360" y="180" width="30" height="60" as="geometry" />
        </mxCell>
        <mxCell id="WHLZQFHV3bn9_gJ3Vfd_-15" style="edgeStyle=orthogonalEdgeStyle;rounded=0;orthogonalLoop=1;jettySize=auto;html=1;entryX=0;entryY=0.5;entryDx=0;entryDy=0;endArrow=none;endFill=0;strokeColor=default;" edge="1" parent="1" source="WHLZQFHV3bn9_gJ3Vfd_-6" target="WHLZQFHV3bn9_gJ3Vfd_-8">
          <mxGeometry relative="1" as="geometry" />
        </mxCell>
        <mxCell id="WHLZQFHV3bn9_gJ3Vfd_-6" value="" style="ellipse;whiteSpace=wrap;html=1;verticalAlign=top;fillColor=#CCCCCC;strokeColor=default;fontColor=#0066CC;gradientColor=none;gradientDirection=north;strokeWidth=2;" vertex="1" parent="1">
          <mxGeometry x="240" y="260" width="20" height="20" as="geometry" />
        </mxCell>
        <mxCell id="WHLZQFHV3bn9_gJ3Vfd_-8" value="" style="ellipse;whiteSpace=wrap;html=1;verticalAlign=top;fillColor=#CCCCCC;strokeColor=default;fontColor=#0066CC;gradientColor=none;gradientDirection=north;strokeWidth=2;" vertex="1" parent="1">
          <mxGeometry x="330" y="260" width="20" height="20" as="geometry" />
        </mxCell>
        <mxCell id="WHLZQFHV3bn9_gJ3Vfd_-10" value="" style="ellipse;whiteSpace=wrap;html=1;verticalAlign=top;fillColor=#CCCCCC;strokeColor=default;fontColor=#0066CC;gradientColor=none;gradientDirection=north;strokeWidth=2;" vertex="1" parent="1">
          <mxGeometry x="205" y="310" width="20" height="20" as="geometry" />
        </mxCell>
        <mxCell id="WHLZQFHV3bn9_gJ3Vfd_-11" value="" style="ellipse;whiteSpace=wrap;html=1;verticalAlign=top;fillColor=#CCCCCC;strokeColor=default;fontColor=#0066CC;gradientColor=none;gradientDirection=north;strokeWidth=2;" vertex="1" parent="1">
          <mxGeometry x="360" y="310" width="20" height="20" as="geometry" />
        </mxCell>
        <mxCell id="WHLZQFHV3bn9_gJ3Vfd_-16" style="rounded=0;orthogonalLoop=1;jettySize=auto;html=1;entryX=0.5;entryY=0;entryDx=0;entryDy=0;endArrow=none;endFill=0;strokeColor=default;" edge="1" parent="1" target="WHLZQFHV3bn9_gJ3Vfd_-11">
          <mxGeometry relative="1" as="geometry">
            <mxPoint x="340" y="281" as="sourcePoint" />
            <mxPoint x="340" y="280" as="targetPoint" />
          </mxGeometry>
        </mxCell>
        <mxCell id="WHLZQFHV3bn9_gJ3Vfd_-17" style="rounded=0;orthogonalLoop=1;jettySize=auto;html=1;endArrow=none;endFill=0;exitX=1;exitY=0.5;exitDx=0;exitDy=0;strokeColor=default;" edge="1" parent="1" source="WHLZQFHV3bn9_gJ3Vfd_-10">
          <mxGeometry relative="1" as="geometry">
            <mxPoint x="350" y="291" as="sourcePoint" />
            <mxPoint x="360" y="320" as="targetPoint" />
          </mxGeometry>
        </mxCell>
        <mxCell id="WHLZQFHV3bn9_gJ3Vfd_-18" style="rounded=0;orthogonalLoop=1;jettySize=auto;html=1;entryX=0.5;entryY=0;entryDx=0;entryDy=0;endArrow=none;endFill=0;exitX=0.5;exitY=1;exitDx=0;exitDy=0;strokeColor=default;" edge="1" parent="1" source="WHLZQFHV3bn9_gJ3Vfd_-6" target="WHLZQFHV3bn9_gJ3Vfd_-10">
          <mxGeometry relative="1" as="geometry">
            <mxPoint x="360" y="301" as="sourcePoint" />
            <mxPoint x="390" y="330" as="targetPoint" />
          </mxGeometry>
        </mxCell>
        <mxCell id="WHLZQFHV3bn9_gJ3Vfd_-19" style="rounded=0;orthogonalLoop=1;jettySize=auto;html=1;entryX=0;entryY=0;entryDx=0;entryDy=0;endArrow=none;endFill=0;exitX=1;exitY=1;exitDx=0;exitDy=0;strokeColor=default;" edge="1" parent="1" source="WHLZQFHV3bn9_gJ3Vfd_-6" target="WHLZQFHV3bn9_gJ3Vfd_-11">
          <mxGeometry relative="1" as="geometry">
            <mxPoint x="370" y="311" as="sourcePoint" />
            <mxPoint x="400" y="340" as="targetPoint" />
          </mxGeometry>
        </mxCell>
        <mxCell id="WHLZQFHV3bn9_gJ3Vfd_-20" style="rounded=0;orthogonalLoop=1;jettySize=auto;html=1;entryX=1;entryY=0.5;entryDx=0;entryDy=0;endArrow=none;endFill=0;exitX=0;exitY=1;exitDx=0;exitDy=0;strokeColor=default;" edge="1" parent="1" source="WHLZQFHV3bn9_gJ3Vfd_-8" target="WHLZQFHV3bn9_gJ3Vfd_-10">
          <mxGeometry relative="1" as="geometry">
            <mxPoint x="380" y="321" as="sourcePoint" />
            <mxPoint x="410" y="350" as="targetPoint" />
          </mxGeometry>
        </mxCell>
        <mxCell id="WHLZQFHV3bn9_gJ3Vfd_-21" value="" style="edgeStyle=orthogonalEdgeStyle;rounded=0;orthogonalLoop=1;jettySize=auto;html=1;strokeColor=default;" edge="1" parent="1" source="WHLZQFHV3bn9_gJ3Vfd_-22" target="WHLZQFHV3bn9_gJ3Vfd_-30">
          <mxGeometry relative="1" as="geometry" />
        </mxCell>
        <mxCell id="WHLZQFHV3bn9_gJ3Vfd_-22" value="&lt;b&gt;&lt;font color=&quot;#330000&quot; style=&quot;font-size: 14px;&quot; face=&quot;Times New Roman&quot;&gt;BPMS&lt;/font&gt;&lt;/b&gt;" style="fontColor=#0066CC;verticalAlign=top;verticalLabelPosition=bottom;labelPosition=center;align=center;html=1;outlineConnect=0;fillColor=#CCCCCC;strokeColor=default;gradientColor=none;gradientDirection=north;strokeWidth=2;shape=mxgraph.networks.desktop_pc;" vertex="1" parent="1">
          <mxGeometry x="210" y="415" width="30" height="60" as="geometry" />
        </mxCell>
        <mxCell id="WHLZQFHV3bn9_gJ3Vfd_-23" style="edgeStyle=orthogonalEdgeStyle;rounded=0;orthogonalLoop=1;jettySize=auto;html=1;exitX=1;exitY=0.5;exitDx=0;exitDy=0;exitPerimeter=0;entryX=0;entryY=0.5;entryDx=0;entryDy=0;strokeColor=default;" edge="1" parent="1" source="WHLZQFHV3bn9_gJ3Vfd_-24" target="WHLZQFHV3bn9_gJ3Vfd_-32">
          <mxGeometry relative="1" as="geometry" />
        </mxCell>
        <mxCell id="WHLZQFHV3bn9_gJ3Vfd_-24" value="&lt;b&gt;&lt;font color=&quot;#330000&quot; style=&quot;font-size: 14px;&quot; face=&quot;Times New Roman&quot;&gt;BPMS&lt;/font&gt;&lt;/b&gt;" style="fontColor=#0066CC;verticalAlign=top;verticalLabelPosition=bottom;labelPosition=center;align=center;html=1;outlineConnect=0;fillColor=#CCCCCC;strokeColor=default;gradientColor=none;gradientDirection=north;strokeWidth=2;shape=mxgraph.networks.desktop_pc;" vertex="1" parent="1">
          <mxGeometry x="150" y="525" width="30" height="60" as="geometry" />
        </mxCell>
        <mxCell id="WHLZQFHV3bn9_gJ3Vfd_-25" style="edgeStyle=orthogonalEdgeStyle;rounded=0;orthogonalLoop=1;jettySize=auto;html=1;exitX=0;exitY=0.5;exitDx=0;exitDy=0;exitPerimeter=0;entryX=1;entryY=0.5;entryDx=0;entryDy=0;strokeColor=default;" edge="1" parent="1" source="WHLZQFHV3bn9_gJ3Vfd_-26" target="WHLZQFHV3bn9_gJ3Vfd_-33">
          <mxGeometry relative="1" as="geometry" />
        </mxCell>
        <mxCell id="WHLZQFHV3bn9_gJ3Vfd_-26" value="&lt;b&gt;&lt;font color=&quot;#330000&quot; style=&quot;font-size: 14px;&quot; face=&quot;Times New Roman&quot;&gt;BPMS&lt;/font&gt;&lt;/b&gt;" style="fontColor=#0066CC;verticalAlign=top;verticalLabelPosition=bottom;labelPosition=center;align=center;html=1;outlineConnect=0;fillColor=#CCCCCC;strokeColor=default;gradientColor=none;gradientDirection=north;strokeWidth=2;shape=mxgraph.networks.desktop_pc;" vertex="1" parent="1">
          <mxGeometry x="424" y="525" width="30" height="60" as="geometry" />
        </mxCell>
        <mxCell id="WHLZQFHV3bn9_gJ3Vfd_-27" style="edgeStyle=orthogonalEdgeStyle;rounded=0;orthogonalLoop=1;jettySize=auto;html=1;exitX=0;exitY=0.5;exitDx=0;exitDy=0;exitPerimeter=0;entryX=0.5;entryY=0;entryDx=0;entryDy=0;strokeColor=default;" edge="1" parent="1" source="WHLZQFHV3bn9_gJ3Vfd_-28" target="WHLZQFHV3bn9_gJ3Vfd_-31">
          <mxGeometry relative="1" as="geometry" />
        </mxCell>
        <mxCell id="WHLZQFHV3bn9_gJ3Vfd_-28" value="&lt;b&gt;&lt;font color=&quot;#330000&quot; style=&quot;font-size: 14px;&quot; face=&quot;Times New Roman&quot;&gt;BPMS&lt;/font&gt;&lt;/b&gt;" style="fontColor=#0066CC;verticalAlign=top;verticalLabelPosition=bottom;labelPosition=center;align=center;html=1;outlineConnect=0;fillColor=#CCCCCC;strokeColor=default;gradientColor=none;gradientDirection=north;strokeWidth=2;shape=mxgraph.networks.desktop_pc;" vertex="1" parent="1">
          <mxGeometry x="370" y="415" width="30" height="60" as="geometry" />
        </mxCell>
        <mxCell id="WHLZQFHV3bn9_gJ3Vfd_-30" value="" style="ellipse;whiteSpace=wrap;html=1;verticalAlign=top;fillColor=#CCCCCC;strokeColor=default;fontColor=#0066CC;gradientColor=none;gradientDirection=north;strokeWidth=2;" vertex="1" parent="1">
          <mxGeometry x="250" y="495" width="20" height="20" as="geometry" />
        </mxCell>
        <mxCell id="WHLZQFHV3bn9_gJ3Vfd_-31" value="" style="ellipse;whiteSpace=wrap;html=1;verticalAlign=top;fillColor=#CCCCCC;strokeColor=default;fontColor=#0066CC;gradientColor=none;gradientDirection=north;strokeWidth=2;" vertex="1" parent="1">
          <mxGeometry x="340" y="495" width="20" height="20" as="geometry" />
        </mxCell>
        <mxCell id="WHLZQFHV3bn9_gJ3Vfd_-32" value="" style="ellipse;whiteSpace=wrap;html=1;verticalAlign=top;fillColor=#CCCCCC;strokeColor=default;fontColor=#0066CC;gradientColor=none;gradientDirection=north;strokeWidth=2;" vertex="1" parent="1">
          <mxGeometry x="215" y="545" width="20" height="20" as="geometry" />
        </mxCell>
        <mxCell id="WHLZQFHV3bn9_gJ3Vfd_-33" value="" style="ellipse;whiteSpace=wrap;html=1;verticalAlign=top;fillColor=#CCCCCC;strokeColor=default;fontColor=#0066CC;gradientColor=none;gradientDirection=north;strokeWidth=2;" vertex="1" parent="1">
          <mxGeometry x="370" y="545" width="20" height="20" as="geometry" />
        </mxCell>
        <mxCell id="WHLZQFHV3bn9_gJ3Vfd_-39" value="&lt;font style=&quot;font-size: 14px;&quot; color=&quot;#330000&quot;&gt;&lt;b&gt;区块链&lt;/b&gt;&lt;/font&gt;" style="html=1;outlineConnect=0;fillColor=#CCCCCC;strokeColor=#6881B3;gradientColor=none;gradientDirection=north;strokeWidth=2;shape=mxgraph.networks.cloud;fontColor=#ffffff;" vertex="1" parent="1">
          <mxGeometry x="250" y="540" width="100" height="60" as="geometry" />
        </mxCell>
        <mxCell id="WHLZQFHV3bn9_gJ3Vfd_-41" style="rounded=0;orthogonalLoop=1;jettySize=auto;html=1;entryX=0.5;entryY=0.08;entryDx=0;entryDy=0;endArrow=none;endFill=0;strokeColor=default;entryPerimeter=0;exitX=0.5;exitY=1;exitDx=0;exitDy=0;" edge="1" parent="1" source="WHLZQFHV3bn9_gJ3Vfd_-30" target="WHLZQFHV3bn9_gJ3Vfd_-39">
          <mxGeometry relative="1" as="geometry">
            <mxPoint x="260" y="520" as="sourcePoint" />
            <mxPoint x="370" y="545" as="targetPoint" />
          </mxGeometry>
        </mxCell>
        <mxCell id="WHLZQFHV3bn9_gJ3Vfd_-42" style="rounded=0;orthogonalLoop=1;jettySize=auto;html=1;endArrow=none;endFill=0;exitX=0.5;exitY=1;exitDx=0;exitDy=0;strokeColor=default;entryX=0.7;entryY=0.07;entryDx=0;entryDy=0;entryPerimeter=0;" edge="1" parent="1" source="WHLZQFHV3bn9_gJ3Vfd_-31" target="WHLZQFHV3bn9_gJ3Vfd_-39">
          <mxGeometry relative="1" as="geometry">
            <mxPoint x="277" y="297" as="sourcePoint" />
            <mxPoint x="383" y="333" as="targetPoint" />
          </mxGeometry>
        </mxCell>
        <mxCell id="WHLZQFHV3bn9_gJ3Vfd_-43" style="rounded=0;orthogonalLoop=1;jettySize=auto;html=1;endArrow=none;endFill=0;exitX=0;exitY=0.5;exitDx=0;exitDy=0;strokeColor=default;entryX=0.7;entryY=0.07;entryDx=0;entryDy=0;entryPerimeter=0;" edge="1" parent="1" source="WHLZQFHV3bn9_gJ3Vfd_-33">
          <mxGeometry relative="1" as="geometry">
            <mxPoint x="360" y="525" as="sourcePoint" />
            <mxPoint x="330" y="554" as="targetPoint" />
          </mxGeometry>
        </mxCell>
        <mxCell id="WHLZQFHV3bn9_gJ3Vfd_-44" style="rounded=0;orthogonalLoop=1;jettySize=auto;html=1;endArrow=none;endFill=0;strokeColor=default;exitX=1;exitY=0.5;exitDx=0;exitDy=0;entryX=0.206;entryY=0.285;entryDx=0;entryDy=0;entryPerimeter=0;" edge="1" parent="1" source="WHLZQFHV3bn9_gJ3Vfd_-32" target="WHLZQFHV3bn9_gJ3Vfd_-39">
          <mxGeometry relative="1" as="geometry">
            <mxPoint x="270" y="525" as="sourcePoint" />
            <mxPoint x="310" y="560" as="targetPoint" />
          </mxGeometry>
        </mxCell>
      </root>
    </mxGraphModel>
  </diagram>
</mxfile>
